<?xml version="1.0" encoding="utf-8"?>
<!-- Generator: Adobe Illustrator 21.0.2, SVG Export Plug-In . SVG Version: 6.00 Build 0)  -->
<svg version="1.1" id="Layer_1" xmlns:dc="http://purl.org/dc/elements/1.1/" xmlns:xl="http://www.w3.org/1999/xlink"
	 xmlns="http://www.w3.org/2000/svg" xmlns:xlink="http://www.w3.org/1999/xlink" x="0px" y="0px" viewBox="0 0 230 95"
	 style="enable-background:new 0 0 230 95;" xml:space="preserve">
<style type="text/css">
	.st0{fill:#FFFFFF;}
	.st1{fill:#FFFFFF;fill-opacity:0.9542;}
	.st2{fill-opacity:4.799870e-02;}
	.st3{fill:#EB3300;}
</style>
<g>
	<title>Canvas 5</title>
	<g>
		<title>Layer 1</title>
		<path d="M53.8,47.6l53.8,0L80.8,94.2l-53.8,0L53.8,47.6z"/>
		<path d="M26.9,94.2l80.8-46.6L94.2,24.3L13.5,70.9L26.9,94.2z"/>
		<path class="st0" d="M40.4,24.3l53.8,0L67.3,70.9l-53.8,0L40.4,24.3z"/>
		<path class="st1" d="M13.5,70.9l80.8-46.6L80.8,1L0,47.6L13.5,70.9z"/>
		<path class="st2" d="M40.4,24.3l53.8,0L67.3,70.9l-53.8,0L40.4,24.3z"/>
		<path class="st3" d="M26.9,1l53.8,0L53.8,47.6L0,47.6L26.9,1z"/>
		<path class="st0" d="M122.5,43.9V29.4h2.8v6h5.8v-6h2.8v14.5H131v-6.2h-5.8v6.2H122.5z"/>
		<path class="st0" d="M136.6,40.8c0-0.9,0.3-1.6,0.9-2.3c0.6-0.6,1.5-1,2.6-1.1l3-0.2v-0.7c0-0.6-0.2-1-0.5-1.2s-0.7-0.4-1.2-0.4
			c-0.5,0-1,0.1-1.3,0.4c-0.3,0.3-0.5,0.6-0.5,1.1h-2.7c0-0.6,0.1-1.1,0.4-1.6c0.2-0.4,0.6-0.8,1-1.1s0.9-0.5,1.4-0.7
			c0.6-0.2,1.2-0.2,1.8-0.2c1.3,0,2.3,0.3,3.1,0.9c0.8,0.6,1.1,1.6,1.1,2.8v5.3h1.8v2.1h-4.2l0-1.7h-0.1c-0.3,0.6-0.7,1.1-1.2,1.4
			c-0.5,0.4-1.2,0.5-2,0.5c-0.5,0-1-0.1-1.4-0.2c-0.4-0.2-0.8-0.4-1.1-0.7s-0.6-0.6-0.7-1.1C136.7,41.7,136.6,41.3,136.6,40.8z
			 M139.4,41.1c0,0.3,0.1,0.6,0.4,0.7c0.3,0.2,0.7,0.2,1.2,0.2c0.7,0,1.2-0.2,1.6-0.7c0.4-0.5,0.6-1.1,0.6-1.8v-0.4l-3.2,0.3
			c-0.4,0-0.6,0.3-0.6,0.7V41.1z"/>
		<path class="st0" d="M148.9,38.5c0-0.9,0.1-1.7,0.3-2.4s0.6-1.3,1-1.8c0.4-0.5,0.9-0.9,1.5-1.1c0.6-0.3,1.3-0.4,2-0.4
			c0.6,0,1.1,0.1,1.6,0.2c0.5,0.1,1,0.4,1.4,0.7c0.4,0.3,0.8,0.7,1,1.2s0.4,1.1,0.5,1.8h-2.7c-0.1-0.7-0.3-1.2-0.6-1.4
			c-0.4-0.3-0.8-0.4-1.3-0.4s-1,0.2-1.4,0.5c-0.4,0.3-0.6,0.9-0.6,1.6v3c0,0.7,0.2,1.2,0.6,1.6c0.4,0.4,0.9,0.6,1.5,0.6
			s1.1-0.1,1.4-0.4c0.3-0.3,0.6-0.8,0.6-1.5h2.7c-0.1,0.7-0.2,1.3-0.5,1.8s-0.6,0.9-1,1.2c-0.4,0.3-0.9,0.6-1.4,0.7
			c-0.5,0.2-1.1,0.2-1.7,0.2c-0.8,0-1.5-0.1-2.1-0.4c-0.6-0.3-1.1-0.7-1.5-1.2c-0.4-0.5-0.7-1.1-0.9-1.8
			C149,40.1,148.9,39.4,148.9,38.5z"/>
		<path class="st0" d="M161,43.9V29.4h2.7v14.5H161z M163.7,37.9l3.6-4.9h3.2l-3.9,4.9l4.2,6h-3L163.7,37.9z"/>
		<path class="st0" d="M121.9,57.2c0-1.2,0.1-2.2,0.4-3.1c0.3-0.9,0.6-1.7,1.2-2.4c0.5-0.7,1.2-1.2,1.9-1.5c0.8-0.4,1.7-0.5,2.8-0.5
			c0.7,0,1.4,0.1,2.1,0.3c0.6,0.2,1.2,0.5,1.7,0.9c0.5,0.4,0.9,0.9,1.1,1.5c0.3,0.6,0.4,1.2,0.5,1.9h-2.8c-0.1-0.8-0.3-1.3-0.8-1.7
			c-0.5-0.4-1.1-0.6-2-0.6c-0.4,0-0.8,0.1-1.2,0.2s-0.7,0.3-1,0.6c-0.3,0.3-0.5,0.6-0.6,0.9c-0.1,0.4-0.2,0.8-0.2,1.2v4.4
			c0,0.4,0.1,0.8,0.2,1.2s0.4,0.7,0.7,1c0.3,0.3,0.6,0.5,1,0.6c0.4,0.1,0.8,0.2,1.2,0.2c0.9,0,1.5-0.2,2-0.6c0.5-0.4,0.8-1,0.9-1.8
			h2.8c-0.1,0.8-0.3,1.6-0.7,2.2c-0.3,0.6-0.7,1.1-1.2,1.5c-0.5,0.4-1.1,0.7-1.7,0.9s-1.4,0.3-2.1,0.3c-1.1,0-2-0.2-2.7-0.6
			c-0.8-0.4-1.4-0.9-1.9-1.6c-0.5-0.7-0.9-1.5-1.1-2.4C122,59.3,121.9,58.3,121.9,57.2z"/>
		<path class="st0" d="M135.6,61.3c0-0.9,0.3-1.6,0.9-2.3c0.6-0.6,1.5-1,2.6-1.1l3-0.2V57c0-0.6-0.2-1-0.5-1.2
			c-0.3-0.3-0.7-0.4-1.2-0.4c-0.5,0-1,0.1-1.3,0.4s-0.5,0.6-0.5,1.1h-2.7c0-0.6,0.1-1.1,0.4-1.6c0.2-0.4,0.6-0.8,1-1.1
			c0.4-0.3,0.9-0.5,1.4-0.7c0.6-0.2,1.2-0.2,1.8-0.2c1.3,0,2.3,0.3,3.1,0.9c0.8,0.6,1.1,1.6,1.1,2.8v5.3h1.8v2.1h-4.2l0-1.7h-0.1
			c-0.3,0.6-0.7,1.1-1.2,1.4c-0.5,0.4-1.2,0.5-2,0.5c-0.5,0-1-0.1-1.4-0.2c-0.4-0.2-0.8-0.4-1.1-0.7c-0.3-0.3-0.6-0.6-0.7-1.1
			C135.7,62.3,135.6,61.8,135.6,61.3z M138.4,61.6c0,0.3,0.1,0.6,0.4,0.7c0.3,0.2,0.7,0.2,1.2,0.2c0.7,0,1.2-0.2,1.6-0.7
			c0.4-0.5,0.6-1.1,0.6-1.8v-0.4L139,60c-0.4,0-0.6,0.3-0.6,0.7V61.6z"/>
		<path class="st0" d="M148.5,64.4V53.6h2.7v1.6c0.3-0.6,0.7-1,1.2-1.4c0.5-0.3,1.1-0.5,1.8-0.5c0.8,0,1.4,0.2,1.9,0.5
			c0.5,0.4,0.9,0.9,1.1,1.5c0.7-1.4,1.8-2,3.3-2c1.1,0,1.9,0.4,2.5,1.1c0.6,0.7,0.8,1.7,0.8,2.9v7.1h-2.7v-6.9c0-1.3-0.5-2-1.5-2h0
			c-0.6,0-1.2,0.2-1.5,0.7c-0.4,0.5-0.6,1.1-0.6,1.9v6.3h-2.7v-6.9c0-1.3-0.5-2-1.5-2h0c-0.6,0-1.2,0.2-1.5,0.7
			c-0.4,0.5-0.6,1.1-0.6,1.9v6.3H148.5z"/>
		<path class="st0" d="M167,64.4V49.9h2.7V55c0.3-0.5,0.8-1,1.3-1.3s1.2-0.5,1.9-0.5c0.7,0,1.4,0.1,1.9,0.4c0.5,0.3,1,0.7,1.3,1.2
			c0.4,0.5,0.6,1.1,0.8,1.8c0.2,0.7,0.3,1.4,0.3,2.2c0,0.8-0.1,1.5-0.3,2.2c-0.2,0.7-0.4,1.3-0.8,1.8c-0.4,0.5-0.8,0.9-1.3,1.2
			c-0.5,0.3-1.2,0.4-1.9,0.4c-0.7,0-1.3-0.2-1.9-0.5c-0.5-0.3-1-0.7-1.3-1.3v1.5H167z M169.7,59.8c0,0.9,0.2,1.5,0.6,2
			c0.4,0.5,1,0.8,1.9,0.8c0.7,0,1.2-0.2,1.6-0.6c0.4-0.4,0.6-0.9,0.6-1.5v-3.1c0-0.6-0.2-1.1-0.6-1.5c-0.4-0.4-0.9-0.6-1.6-0.6
			c-0.9,0-1.5,0.3-1.9,0.8c-0.4,0.5-0.6,1.2-0.6,2V59.8z"/>
		<path class="st0" d="M179.9,64.4V53.6h6.1v2.1h-3.4v8.8H179.9z"/>
		<path class="st0" d="M188.1,52.3v-2.4h2.7v2.4H188.1z M188.1,64.4V53.6h2.7v10.9H188.1z"/>
		<path class="st0" d="M193.5,59c0-0.8,0.1-1.5,0.3-2.2c0.2-0.7,0.4-1.3,0.8-1.8c0.4-0.5,0.8-0.9,1.3-1.2c0.5-0.3,1.2-0.4,1.9-0.4
			s1.3,0.2,1.9,0.5c0.5,0.3,1,0.7,1.3,1.3v-5.1h2.7v14.5H201V63c-0.3,0.5-0.8,1-1.3,1.3c-0.5,0.3-1.1,0.5-1.9,0.5
			c-0.7,0-1.4-0.1-1.9-0.4c-0.5-0.3-1-0.7-1.4-1.2c-0.4-0.5-0.6-1.1-0.8-1.8S193.5,59.8,193.5,59z M196.3,60.5
			c0,0.6,0.2,1.1,0.6,1.5c0.4,0.4,0.9,0.6,1.6,0.6c0.9,0,1.5-0.3,1.9-0.8c0.4-0.5,0.6-1.2,0.6-2v-1.6c0-0.9-0.2-1.5-0.6-2
			c-0.4-0.5-1-0.8-1.9-0.8c-0.7,0-1.2,0.2-1.6,0.6c-0.4,0.4-0.6,0.9-0.6,1.5V60.5z"/>
		<path class="st0" d="M206.4,59c0-0.8,0.1-1.5,0.3-2.2c0.2-0.7,0.4-1.3,0.8-1.8c0.4-0.5,0.8-0.9,1.3-1.2c0.5-0.3,1.2-0.4,1.9-0.4
			c0.7,0,1.3,0.2,1.9,0.5c0.5,0.3,1,0.7,1.3,1.3v-1.5h2.7v10.7c0,0.7-0.1,1.4-0.4,1.9c-0.3,0.5-0.6,1-1.1,1.3
			c-0.5,0.4-1,0.6-1.6,0.8c-0.6,0.2-1.2,0.3-1.8,0.3c-0.6,0-1.2-0.1-1.8-0.2c-0.6-0.1-1-0.3-1.5-0.6c-0.4-0.3-0.8-0.6-1-1.1
			s-0.4-1-0.5-1.6h2.7c0.1,0.4,0.3,0.8,0.6,1c0.3,0.2,0.8,0.4,1.4,0.4c0.3,0,0.6,0,0.9-0.1c0.3-0.1,0.6-0.2,0.8-0.4
			c0.2-0.2,0.4-0.4,0.5-0.7c0.1-0.3,0.2-0.7,0.2-1.2V63c-0.3,0.5-0.8,1-1.3,1.3c-0.5,0.3-1.1,0.5-1.9,0.5c-0.7,0-1.4-0.1-1.9-0.4
			c-0.5-0.3-1-0.7-1.4-1.2c-0.4-0.5-0.6-1.1-0.8-1.8C206.5,60.5,206.4,59.8,206.4,59z M209.2,60.5c0,0.6,0.2,1.1,0.6,1.5
			c0.4,0.4,0.9,0.6,1.6,0.6c0.9,0,1.5-0.3,1.9-0.8c0.4-0.5,0.6-1.2,0.6-2v-1.6c0-0.9-0.2-1.5-0.6-2c-0.4-0.5-1-0.8-1.9-0.8
			c-0.7,0-1.2,0.2-1.6,0.6c-0.4,0.4-0.6,0.9-0.6,1.5V60.5z"/>
		<path class="st0" d="M219.2,59c0-0.9,0.1-1.6,0.4-2.3c0.2-0.7,0.6-1.3,1-1.8c0.4-0.5,0.9-0.9,1.5-1.2c0.6-0.3,1.3-0.4,2-0.4
			c0.7,0,1.4,0.1,2,0.4c0.6,0.3,1.1,0.6,1.5,1.1c0.4,0.5,0.8,1,1,1.6c0.2,0.6,0.3,1.3,0.3,2.1v1.3h-7v0.7c0,0.7,0.2,1.2,0.6,1.5
			c0.4,0.4,0.9,0.5,1.5,0.5c0.6,0,1.1-0.2,1.4-0.5c0.4-0.3,0.6-0.7,0.7-1.3h2.7c-0.2,1.2-0.7,2.1-1.5,2.8s-1.9,1-3.3,1
			c-0.8,0-1.5-0.1-2.1-0.4c-0.6-0.3-1.1-0.7-1.5-1.2c-0.4-0.5-0.7-1.1-1-1.8C219.3,60.6,219.2,59.8,219.2,59z M222,57.8h4.3v-0.4
			c0-0.6-0.2-1.1-0.6-1.5c-0.4-0.4-0.9-0.6-1.5-0.6c-0.6,0-1.1,0.2-1.5,0.6c-0.4,0.4-0.6,0.9-0.6,1.5V57.8z"/>
		<path class="st0" d="M122.5,72.8V71h9.1v1.8H128v12.7h-1.8V72.8H122.5z"/>
		<path class="st0" d="M135.2,83.7v-7.2h1.8v1.8h5.4v-1.8H137v-1.8h5.4v1.8h1.8v3.6H137v3.6h5.4v1.8H137v-1.8H135.2z M142.4,83.7
			v-1.8h1.8v1.8H142.4z"/>
		<path class="st0" d="M147.9,85.5V74.7h5.4v1.8h-3.6v9.1H147.9z"/>
		<path class="st0" d="M155.1,85.5V74.7h1.8v1.8h1.8v1.8h-1.8v7.2H155.1z M158.7,76.5v-1.8h3.6v1.8h1.8v9.1h-1.8v-9.1H158.7z"/>
		<path class="st0" d="M167.8,83.7v-3.6h1.8v3.6H167.8z M167.8,78.3v-1.8h1.8v1.8H167.8z M169.6,85.5v-1.8h3.6v1.8H169.6z
			 M169.6,80.1v-1.8h5.4v-1.8h1.8v7.2h1.8v1.8H175v-1.8h-1.8v-1.8h1.8v-1.8H169.6z M169.6,76.5v-1.8h5.4v1.8H169.6z"/>
		<path class="st0" d="M180.5,85.5V74.7h5.4v1.8h-3.6v9.1H180.5z"/>
		<path class="st0" d="M187.7,87.3h3.6v-3.6h1.8v5.4h-5.4V87.3z M187.7,78.3v-3.6h1.8v3.6H187.7z M189.5,83.7v-5.4h1.8v5.4H189.5z
			 M193.2,83.7v-5.4h1.8v5.4H193.2z M195,78.3v-3.6h1.8v3.6H195z"/>
	</g>
</g>
</svg>
